<svg version="1.1" xmlns="http://www.w3.org/2000/svg" style="display: block;" viewBox="0 0 2048 2048" width="1024" height="1024">
<path transform="translate(0,0)" fill="rgb(254,254,248)" d="M 0 0 L 2048 0 L 2048 2048 L 0 2048 L 0 0 z"/>
<path transform="translate(0,0)" fill="rgb(54,45,79)" d="M 561.421 1880.72 C 562.479 1880.63 563.44 1880.51 564.513 1880.63 C 567.377 1880.94 568.7 1882.58 570.506 1884.55 C 571.002 1886.22 571.483 1886.8 570.947 1888.53 C 568.156 1897.54 546.049 1911.24 537.671 1915.84 C 534.439 1916.89 533.34 1916.96 530.208 1915.86 L 529.452 1914.06 C 533.604 1901.95 551.404 1888.06 561.421 1880.72 z"/>
<path transform="translate(0,0)" fill="rgb(54,45,79)" d="M 192.784 1894.27 C 195.574 1894.58 198.468 1894.94 201.176 1895.69 C 209.293 1897.96 229.235 1907.05 232.857 1914.86 C 233.605 1916.47 233.135 1916.81 232.669 1918.41 L 228.579 1920.31 C 215.066 1919.8 197.677 1913.69 187.781 1904.1 C 185.74 1902.13 185.266 1901.16 185.35 1898.38 C 187.621 1895.65 189.412 1895.17 192.784 1894.27 z"/>
<path transform="translate(0,0)" fill="rgb(54,45,79)" d="M 547.603 1871.79 C 549.18 1871.69 550.378 1871.52 551.889 1872.12 C 553.191 1872.63 553.182 1873.57 553.703 1874.77 C 550.92 1885.74 520.862 1913.03 510.519 1919.44 C 510.224 1919.5 509.933 1919.59 509.632 1919.61 C 506.998 1919.79 506.187 1919.86 504.145 1918.36 C 504.226 1917.1 504.17 1916.87 504.666 1915.5 C 509.412 1902.38 535.376 1878.72 547.603 1871.79 z"/>
<path transform="translate(0,0)" fill="rgb(54,45,79)" d="M 225.447 1884.6 C 233.197 1884.85 239.724 1887.98 246.32 1891.78 C 253.751 1896.06 277.956 1912.94 280.02 1920.65 C 276.509 1921.28 273.254 1921.67 269.7 1921.07 C 255.252 1918.61 236.553 1908.87 228.246 1896.62 C 225.314 1892.29 224.569 1889.76 225.447 1884.6 z"/>
<path transform="translate(0,0)" fill="rgb(54,45,79)" d="M 1405.27 677.113 C 1409.01 676.836 1412.78 676.586 1416.35 677.946 A 17.517 17.517 0 0 1 1426.12 687.399 A 17.7771 17.7771 0 0 1 1426.02 701.097 C 1423.56 707.025 1418.98 709.829 1413.36 712.357 C 1411.16 712.631 1408.7 712.68 1406.52 712.239 C 1401.58 711.244 1396.54 708.056 1394.08 703.59 C 1391.73 699.32 1391.44 694.59 1392.79 689.955 C 1394.74 683.234 1399.4 680.254 1405.27 677.113 z"/>
<path transform="translate(0,0)" fill="rgb(254,254,248)" d="M 1409.69 681.925 A 45.6673 45.6673 0 0 1 1411.76 682.577 C 1415.41 683.837 1419.49 686.357 1420.95 690.148 C 1422.18 693.331 1422.1 696.399 1420.62 699.497 C 1418.33 704.323 1414.64 705.661 1409.88 707.283 C 1405.56 706.168 1400.61 704.024 1398.54 699.752 C 1396.98 696.555 1396.77 693.44 1398.3 690.166 C 1400.55 685.33 1404.92 683.484 1409.69 681.925 z"/>
<path transform="translate(0,0)" fill="rgb(54,45,79)" d="M 1605.99 670.222 C 1608.84 669.784 1611.85 669.454 1614.7 670.149 C 1619.71 671.372 1624.17 674.524 1626.66 679.07 C 1629.45 684.156 1629.69 690.255 1627.77 695.677 C 1625.31 702.588 1620.63 706.087 1614.22 709.139 C 1611.11 709.253 1607.88 709.479 1604.85 708.647 C 1599.87 707.282 1595.41 703.956 1592.95 699.389 C 1590.45 694.765 1590.09 689.364 1591.67 684.385 C 1594.1 676.74 1599.08 673.544 1605.99 670.222 z"/>
<path transform="translate(0,0)" fill="rgb(254,254,248)" d="M 1610.49 675.043 C 1611.98 675.383 1613.53 675.686 1614.95 676.28 C 1618.82 677.898 1622.36 681.653 1623.58 685.667 C 1624.7 689.338 1623.93 693.485 1622.01 696.76 C 1619.42 701.178 1615.14 702.756 1610.48 704.178 C 1608.49 703.96 1606.41 703.641 1604.53 702.908 C 1601.2 701.605 1598.32 698.373 1597.2 695.008 C 1595.96 691.285 1596.59 687.142 1598.34 683.683 C 1600.99 678.411 1605.1 676.67 1610.49 675.043 z"/>
<path transform="translate(0,0)" fill="rgb(54,45,79)" d="M 1499.32 841.326 C 1503.57 843.815 1510.7 877.915 1513.51 885.774 C 1519.17 888.931 1524.99 891.988 1530.47 895.46 C 1533.32 897.268 1535.16 898.425 1535.93 901.785 C 1532.56 907.609 1520.1 909.579 1513.82 911.485 C 1508.86 922.508 1506.66 934.794 1501.42 945.6 C 1500 948.539 1499.13 948.841 1496.08 949.84 C 1493.11 937.016 1488.83 924.555 1484.8 912.036 C 1474.96 907.935 1464.67 905.338 1455.28 900.159 C 1464.36 894.67 1474.85 891.69 1484.21 886.537 C 1490.01 871.854 1492.55 855.477 1499.32 841.326 z"/>
<path transform="translate(0,0)" fill="rgb(254,254,248)" d="M 1498.31 866.717 C 1502.24 870.998 1504.62 887.992 1507.98 894.944 C 1511.5 896.675 1514.96 898.397 1518.32 900.426 C 1515.6 901.487 1512.18 901.503 1509.75 903.153 C 1502.53 908.039 1503.81 920.74 1498.35 927.269 C 1495.64 920.233 1494.22 912.198 1492.34 904.872 C 1486.44 903.379 1480.4 902.271 1474.44 901.022 C 1480.15 898.607 1485.45 896.172 1490.72 892.879 C 1494.16 884.549 1495.88 875.395 1498.31 866.717 z"/>
<path transform="translate(0,0)" fill="rgb(54,45,79)" d="M 1816.63 284.922 C 1819.19 284.739 1820.9 284.671 1823.41 285.388 C 1833.33 294.617 1824.29 321.037 1843.01 334.202 C 1849.02 338.432 1855.47 339.94 1862.14 342.635 C 1864.05 343.407 1863.72 343.468 1864.63 345.152 C 1856.04 351.891 1844.12 353.121 1835.52 360.979 C 1827.43 368.374 1828.55 383.105 1827.97 393.37 C 1827.44 393.701 1826.94 394.08 1826.38 394.363 C 1823.97 395.588 1823.21 395.292 1820.73 394.64 C 1812.97 386.448 1818.59 370.961 1811.72 362.134 C 1805.5 354.14 1785.97 350.547 1782.75 345.02 C 1786.47 340.213 1795.55 337.644 1800.76 334.108 C 1813.53 325.453 1814.24 298.735 1816.63 284.922 z"/>
<path transform="translate(0,0)" fill="rgb(229,242,237)" d="M 1820.51 317.776 C 1828.66 326.66 1821 335.182 1840.4 344.741 C 1833.41 349.871 1827.27 354.51 1822.33 361.787 C 1817.14 351.786 1811.24 347.758 1801.45 342.827 C 1813.43 335.766 1816.35 330.707 1820.51 317.776 z"/>
<path transform="translate(0,0)" fill="rgb(54,45,79)" d="M 958.455 183.681 C 958.844 180.582 959.125 178.619 961.743 176.482 C 968.755 170.758 985.811 172.991 994.493 172.764 A 998.73 998.73 0 0 1 1220.71 190.372 C 1296.09 205.086 1373.66 227.703 1442.25 262.957 C 1449.31 266.585 1462.52 271.826 1466.85 278.431 C 1467.88 279.991 1468.14 280.994 1468.31 282.803 C 1467.64 285.306 1466.41 287.15 1464.17 288.521 C 1462.84 289.33 1461.29 289.87 1459.83 290.403 C 1446.36 289.056 1418.81 274.113 1405.05 268.165 A 1093.61 1093.61 0 0 0 1355.75 248.219 A 991.26 991.26 0 0 0 1217.5 209.157 C 1159 196.788 1098.4 192.786 1038.74 191.119 A 1004.69 1004.69 0 0 0 1000.56 190.592 C 990.126 190.74 978.635 192.113 968.318 190.478 C 963.23 189.672 961.406 187.78 958.455 183.681 z"/>
<path transform="translate(0,0)" fill="rgb(54,45,79)" d="M 1670.5 99.0425 C 1670.93 99.1176 1671.36 99.1817 1671.79 99.2677 C 1674.14 99.7385 1677.76 100.437 1678.55 103.085 C 1680.58 109.912 1679.76 120.702 1680.36 128.175 C 1681.92 147.635 1684.52 167.788 1690.29 186.465 C 1702.84 227.096 1741.33 219.666 1748.71 231.123 C 1748.17 232.519 1748.18 233.347 1746.82 234.181 C 1740.27 238.205 1727.04 239.282 1718.58 243.411 C 1689.68 257.516 1684.87 289.546 1683.33 318.547 C 1682.86 327.468 1683.44 337.73 1680.58 346.201 C 1678.47 349.143 1675.57 349.675 1672.3 350.718 C 1669.87 349.28 1668.3 348.139 1667.39 345.406 C 1665.37 339.398 1665.33 331.961 1664.71 325.67 C 1662.82 306.61 1661.36 286.526 1653.03 268.988 C 1642.86 247.582 1622.26 241.761 1601.93 234.406 C 1598.79 233.272 1595.02 232.092 1593.52 228.871 C 1594.46 226.391 1594.59 225.891 1597.28 224.851 C 1600.04 223.786 1604.11 223.686 1607.07 223.162 A 67.7698 67.7698 0 0 0 1634.18 211.68 C 1657.22 195.006 1661.03 155.757 1662.94 129.236 C 1663.46 122.037 1662.77 114.306 1664.19 107.24 C 1665.02 103.133 1667.09 101.241 1670.5 99.0425 z"/>
<path transform="translate(0,0)" fill="rgb(254,254,248)" d="M 1687.36 211.903 C 1696.14 220.452 1703.92 226.926 1715.47 231.462 C 1705.56 235.781 1698.03 239.217 1690.27 246.847 C 1686.03 239.035 1691.58 231.121 1691.48 223.449 C 1691.43 219.649 1686.66 218.336 1685.68 214.241 L 1687.36 211.903 z"/>
<path transform="translate(0,0)" fill="rgb(229,242,237)" d="M 1676.76 190.652 C 1679.24 198.502 1682.9 205.015 1687.36 211.903 L 1685.68 214.241 C 1686.66 218.336 1691.43 219.649 1691.48 223.449 C 1691.58 231.121 1686.03 239.035 1690.27 246.847 C 1685.38 254.343 1681.01 261.529 1677.96 269.999 C 1676.1 266.678 1674.98 262.921 1673.21 259.509 C 1668.67 250.742 1663.04 242.815 1659.25 233.625 A 296.79 296.79 0 0 0 1676.76 190.652 z"/>
<path transform="translate(0,0)" fill="rgb(254,254,248)" d="M 1626.32 230.874 C 1630.23 229.016 1634.28 227.202 1637.98 224.952 C 1661.07 210.913 1666.02 189.572 1672.21 164.997 C 1672.8 173.798 1674.71 182.102 1676.76 190.652 A 296.79 296.79 0 0 1 1659.25 233.625 C 1663.04 242.815 1668.67 250.742 1673.21 259.509 C 1674.98 262.921 1676.1 266.678 1677.96 269.999 C 1675.82 277.428 1674.85 284.859 1674 292.526 C 1672.03 281.696 1669.85 271.138 1664.93 261.204 C 1656.41 244.004 1643.93 236.769 1626.32 230.874 z"/>
<path transform="translate(0,0)" fill="rgb(252,207,189)" d="M 909.373 190.312 C 925.943 189.402 942.192 186.836 958.455 183.681 C 961.406 187.78 963.23 189.672 968.318 190.478 C 978.635 192.113 990.126 190.74 1000.56 190.592 A 1004.69 1004.69 0 0 1 1038.74 191.119 C 1098.4 192.786 1159 196.788 1217.5 209.157 A 991.26 991.26 0 0 1 1355.75 248.219 A 1093.61 1093.61 0 0 1 1405.05 268.165 C 1418.81 274.113 1446.36 289.056 1459.83 290.403 L 1456.73 291.711 C 1456.24 294.52 1456.84 296.774 1457.46 299.493 C 1455.96 301.738 1455.18 301.941 1452.53 302.438 C 1430.25 306.628 1406.49 306.734 1383.89 308.975 A 2388.91 2388.91 0 0 0 1273.77 322.939 C 1260.19 324.891 1242.43 325.703 1229.58 329.439 C 1228.64 330.93 1228.79 330.186 1228.81 331.585 C 1202.88 329.939 1179.26 330.141 1154.14 337.851 C 1146.05 340.336 1138.15 344.166 1130.09 346.462 C 1129.23 345.823 1128.53 344.889 1127.52 344.544 C 1125.35 343.807 1108.86 346.737 1105.38 347.243 C 1074.46 351.731 1043.66 357.433 1012.78 362.227 A 6384.13 6384.13 0 0 1 899.572 377.927 C 876.92 380.885 853.915 384.505 831.176 386.343 C 850.175 340.422 868.351 294.266 886.406 247.979 C 893.863 228.86 903.52 209.931 909.373 190.312 z"/>
<path transform="translate(0,0)" fill="rgb(54,45,79)" d="M 1130.09 346.462 C 1138.15 344.166 1146.05 340.336 1154.14 337.851 C 1179.26 330.141 1202.88 329.939 1228.81 331.585 C 1281.48 340.388 1326.86 364.223 1358.5 408.453 C 1365.48 418.219 1371.07 428.556 1375.96 439.509 C 1416.53 441.792 1457.92 439.936 1498.6 439.96 L 1748.79 440.028 L 1825.51 440.286 C 1840.12 440.348 1856.27 439.199 1870.69 441.705 A 59.406 59.406 0 0 1 1904.23 460.366 C 1915.61 473.138 1920.69 490.194 1919.37 507.104 C 1918.15 522.839 1911.48 536.754 1899.41 546.987 C 1890.63 554.434 1880.49 559.279 1869.09 561.111 C 1857.03 563.048 1843.53 562.213 1831.31 562.399 A 5605.8 5605.8 0 0 1 1740.67 562.626 L 1491.53 562.868 C 1455.16 562.926 1418.29 561.546 1381.98 562.821 A 179.674 179.674 0 0 1 1292.24 669.561 A 186.396 186.396 0 0 1 1150.83 682.371 C 1106.17 668.161 1064.64 635.031 1043.04 593.141 A 183.145 183.145 0 0 1 1032.19 453.652 C 1048.52 402.817 1078.54 372.573 1125.2 348.88 C 1126.82 348.057 1128.44 347.223 1130.09 346.462 z"/>
<path transform="translate(0,0)" fill="rgb(254,254,248)" d="M 1667.49 461.944 L 1798.78 461.917 C 1816.99 462.016 1837.52 460.03 1855.33 463.363 C 1862.66 464.735 1869.19 469.166 1874.29 474.466 C 1881.28 481.725 1886.56 491.753 1886 502.055 C 1885.47 511.758 1880.24 520.839 1873.06 527.206 C 1867.83 531.848 1862.33 534.435 1855.45 535.52 C 1833.15 539.038 1797.7 536.589 1773.9 536.512 C 1733.51 536.38 1692.71 537.679 1652.38 536.344 C 1655.87 523.157 1658.59 509.981 1660.83 496.528 C 1662.74 485.063 1663.99 473.023 1667.49 461.944 z"/>
<path transform="translate(0,0)" fill="rgb(233,121,112)" d="M 1385.16 461.822 L 1667.49 461.944 C 1663.99 473.023 1662.74 485.063 1660.83 496.528 C 1658.59 509.981 1655.87 523.157 1652.38 536.344 C 1623.68 535.482 1594.72 536.233 1566 536.198 L 1389.57 535.9 C 1391.41 508.694 1389.75 488.557 1385.16 461.822 z"/>
<path transform="translate(0,0)" fill="rgb(233,121,112)" d="M 1191.67 351.427 C 1231.7 346.746 1275.81 360.122 1307.53 384.552 C 1341.13 410.42 1364.77 448.714 1369.92 491.029 C 1374.87 531.743 1361.71 576.307 1336.31 608.419 C 1308.8 643.201 1266.86 664.627 1223.24 669.664 L 1222.27 669.742 C 1175.39 673.451 1131.58 659.466 1095.8 628.688 C 1065.14 602.303 1047.12 566.253 1044.15 525.954 C 1040.97 482.792 1052.48 438.508 1081.34 405.561 C 1110.19 372.628 1148.17 354.453 1191.67 351.427 z"/>
<path transform="translate(0,0)" fill="rgb(254,254,248)" d="M 1186.51 405.364 C 1186.72 405.331 1186.93 405.282 1187.15 405.264 C 1215.88 402.919 1245.26 406.373 1268.23 425.191 C 1288.31 441.644 1298.74 466.008 1301.23 491.538 C 1304.89 529.076 1294.18 550.84 1271.11 578.758 C 1272.45 581.561 1273.86 584.312 1275.58 586.912 C 1285.63 602.17 1300.86 606.168 1317.57 609.775 A 123.317 123.317 0 0 1 1312.01 612.084 C 1293.95 619.067 1278.57 616.708 1261.37 609.136 C 1254.03 604.845 1246.92 600.459 1241.75 593.542 C 1234.37 595.555 1227.04 597.347 1219.44 598.373 C 1189.47 602.422 1159.38 596.607 1135.1 577.993 C 1114.38 562.113 1102.18 539.24 1099.08 513.476 C 1096.03 488.179 1102.02 461.243 1117.96 441.024 C 1134.95 419.483 1159.8 408.681 1186.51 405.364 z"/>
<path transform="translate(0,0)" fill="rgb(233,121,112)" d="M 1187.04 415.273 C 1193.21 415.117 1199.23 415.805 1205.09 417.832 C 1219.68 422.879 1230.16 435.515 1236.75 449.034 C 1250.48 477.206 1252.77 518.741 1242.5 548.319 C 1220.55 540.273 1210.61 539.967 1189.22 549.527 C 1202.66 550.246 1210.35 555.022 1219.87 564.077 C 1224.6 569.261 1228.46 574.695 1232.26 580.577 C 1216.92 582.94 1202.35 584.73 1187.86 577.483 C 1172.76 569.931 1163.94 555.775 1158.83 540.229 C 1148.55 509.013 1150.6 464.957 1165.83 435.595 C 1170.65 426.311 1176.78 418.477 1187.04 415.273 z"/>
<path transform="translate(0,0)" fill="rgb(54,45,79)" d="M 800.928 209.441 C 807.34 193.199 831.027 118.851 839.171 111.116 C 839.531 110.775 839.915 110.459 840.279 110.122 C 850.723 100.481 895.847 65.022 907.836 62.3272 C 909.457 63.1819 910.096 63.7515 911.052 65.3825 C 913.797 70.0697 925.381 149.542 923.712 155.211 C 923.589 155.631 923.434 156.041 923.31 156.46 C 919.939 167.832 913.881 177.974 909.813 189.08 L 909.373 190.312 C 903.52 209.931 893.863 228.86 886.406 247.979 C 868.351 294.266 850.175 340.422 831.176 386.343 A 7432.75 7432.75 0 0 1 755.823 570.272 L 727.219 639.092 C 718.933 658.755 710.018 678.446 702.957 698.599 C 702.374 700.262 701.146 702.843 701.95 704.488 C 705.098 710.929 720.74 714.279 727.205 716.353 C 734.908 711.916 742.215 709.099 751.236 711.677 A 23.1561 23.1561 0 0 1 765.079 722.92 C 769.174 730.373 769.32 739.559 766.67 747.518 C 763.671 756.526 758.324 761.792 750.146 766.132 C 743.705 765.228 736.625 764.704 730.641 762.038 C 723.554 758.882 697.674 736.775 690.888 740.456 C 690.813 743.096 691.754 744.12 693.439 746.036 C 694.045 746.725 694.738 747.333 695.376 747.993 C 702.627 755.484 707.023 768.767 706.49 778.977 C 705.763 792.875 698.411 804.669 688.52 813.902 C 704.56 828.055 719.072 843.842 734.918 858.187 C 739.822 862.626 756.599 873.818 758.732 878.742 C 758.835 881.52 758.546 883.507 756.664 885.639 C 754.176 888.456 750.792 890.845 747.833 893.156 C 761.006 907.183 773.938 922.93 788.462 935.545 C 797.998 943.828 808.756 950.621 819.228 957.644 L 824.622 945.564 C 822.41 940.49 819.902 935.555 819.56 929.959 C 819.535 929.541 819.486 929.124 819.466 928.706 C 819.209 923.355 821.27 917.623 822.634 912.477 C 817.048 908.025 808.504 901.883 807.477 894.227 C 806.876 889.739 808.471 886.106 811.374 882.74 C 821.431 871.08 851.359 863.252 849.963 844.383 C 849.79 842.047 848.311 840.31 846.418 839.056 C 841.212 835.607 829.513 836.458 827.168 829.632 C 825.588 825.035 828.767 818.875 831.197 815.11 C 838.134 804.361 849.606 797.899 857.805 788.408 C 861.768 783.821 863.117 777.568 866.894 772.896 C 871.87 766.741 878.649 761.869 884.073 756.074 C 893.266 746.253 920.377 711.063 931.713 708.493 C 936.897 707.318 941.959 709.316 946.099 712.323 C 948.574 714.12 950.795 716.191 952.982 718.321 C 997.145 717.563 1036.3 738.437 1067.54 768.8 C 1103.03 803.284 1124.08 858.094 1124.43 907.302 C 1124.48 914.496 1124.05 921.797 1122.53 928.84 C 1107.4 945.38 1076.08 952.768 1055.26 961.207 C 1065.79 963.579 1076.54 964.775 1087.12 966.93 C 1109.9 971.572 1132.67 977.096 1155.24 982.724 A 1342.52 1342.52 0 0 1 1516.76 1127.29 C 1537.56 1084.74 1573.78 1028.47 1608 995.226 C 1603.91 992.053 1599.13 988.905 1598.98 983.119 C 1598.91 980.543 1599.88 978.648 1601.82 977.026 C 1604.9 974.449 1609.55 973.686 1613.4 974.374 C 1616.1 974.856 1618.72 975.806 1621.3 976.727 C 1619.33 969.82 1615.83 961.264 1619.34 954.323 C 1620.48 952.07 1621.65 950.939 1623.89 949.706 C 1632.41 948.593 1637.57 956.415 1641.78 956.446 C 1642.06 956.448 1687.71 912.912 1702.12 901.38 C 1698.11 897.601 1691.76 892.835 1692.03 886.684 C 1692.15 883.95 1693.13 883.228 1695 881.593 C 1698.98 880.516 1702.71 880.768 1706.34 882.832 C 1709.62 884.693 1712.69 887.654 1715.57 890.083 C 1717.53 888.155 1719.37 886.297 1721.7 884.801 C 1717.38 878.683 1712.63 873.23 1711.89 865.54 C 1712.5 863.998 1712.48 862.9 1714.06 862.096 C 1717.93 860.127 1723.76 861.837 1727.52 863.361 A 542.104 542.104 0 0 1 1739.99 868.693 C 1739.92 868.281 1739.85 867.867 1739.77 867.456 C 1737.73 856.841 1727.31 836.164 1732.45 826.761 C 1734.56 825.455 1735.17 825.103 1737.8 825.449 C 1747.15 826.684 1753.76 837.506 1758.14 844.853 A 783.862 783.862 0 0 1 1763.93 854.74 C 1795.4 832.086 1847 801.632 1883.82 789.569 C 1880.41 773.904 1873.24 758.364 1866.91 743.675 C 1852.31 709.774 1835.77 677.296 1819.49 644.208 C 1822.26 640.997 1825.3 636.49 1829.78 635.859 C 1832.47 635.481 1834.32 636.539 1836.15 638.367 C 1846.1 648.311 1858.68 677.445 1865.52 690.948 C 1928.65 815.637 1956.83 960.875 1951.9 1100.03 A 874.604 874.604 0 0 1 1934.63 1248.06 C 1896.42 1428.51 1795.46 1593.02 1661.08 1718.08 C 1628.29 1748.6 1593.78 1777.85 1556.44 1802.64 C 1559.68 1812.63 1562.07 1823.23 1565.71 1833.03 C 1572.09 1837.09 1579.24 1842.86 1580.94 1850.59 C 1581.94 1855.11 1582.05 1859.85 1583.61 1864.24 C 1594.44 1894.74 1616.55 1911.54 1610.46 1948.03 C 1576.39 1950.48 1541.34 1948.98 1507.14 1949.01 C 1482.83 1949.03 1457.6 1950.71 1433.42 1949.07 C 1430.95 1948.91 1427.14 1948.9 1425.15 1947.24 C 1422.75 1945.23 1420.72 1941.36 1420.96 1938.16 C 1421.52 1931 1430.32 1924.94 1435.76 1921.31 C 1451.08 1911.07 1467.93 1903.81 1484.51 1895.95 C 1469.32 1881.14 1452.48 1866.68 1438.53 1850.78 C 1407.68 1867.51 1374.86 1880.17 1341.8 1891.76 C 1213.26 1936.85 1090.93 1949.09 955.724 1948.97 C 931.169 1948.95 907.052 1947.22 882.576 1945.66 C 875.42 1945.2 865.891 1945.9 859.15 1943.7 C 856 1942.68 853.013 1940.42 851.515 1937.39 C 850.389 1935.12 850.625 1934.53 851.229 1932.22 C 856.38 1927.34 863.911 1927.62 870.598 1927.81 C 881.411 1928.13 892.213 1929.09 903.033 1929.06 C 927.026 1894.45 951.632 1859.64 983.367 1831.56 C 994.468 1821.74 1006.37 1812.55 1018.45 1803.98 C 1023.2 1800.61 1038.99 1792.14 1041.24 1788.44 C 1037.81 1789.09 1034.58 1790.03 1031.12 1789.12 C 1029.17 1787.23 1029.27 1787.2 1028.99 1784.48 C 1032.35 1778.32 1050.65 1771.95 1057.63 1770.05 C 1063.68 1768.41 1063.69 1771.04 1066.98 1770.82 C 1069.25 1770.66 1120.95 1744.34 1128.6 1740.95 C 1121.82 1739.87 1113.99 1739.34 1109.5 1733.4 C 1108.28 1731.78 1107.76 1730.71 1107.2 1728.72 C 1108.11 1726.08 1108.22 1725.74 1110.98 1724.57 C 1119.05 1721.15 1139.51 1725.42 1148.37 1727.24 C 1142.6 1721.49 1121.49 1704.76 1122.61 1696.34 C 1123 1693.41 1124.31 1692.61 1126.42 1690.87 C 1130.3 1689.82 1132.92 1690.24 1136.29 1692.3 C 1144.98 1697.63 1152.9 1706.59 1160.32 1713.64 C 1151.64 1665.25 1154.29 1611.05 1170.86 1564.59 A 3831.2 3831.2 0 0 1 1134.18 1513.01 C 1124.2 1498.62 1114.57 1483 1102.73 1470.11 C 1081.52 1481.37 1061.37 1494.91 1040.54 1506.9 C 1005.01 1527.34 968.849 1546.67 934.107 1568.45 C 918.78 1578.06 904.394 1589.08 889.034 1598.64 C 890.208 1617.75 887.042 1637.68 885.7 1656.74 C 885.14 1664.68 887.643 1672.47 887.077 1680.44 C 883.878 1725.51 868.166 1818.43 847.12 1858.03 C 849.99 1862.54 853.318 1867.08 855.452 1871.98 C 851.351 1885.88 842.333 1895.17 832.837 1905.6 C 836.571 1918.79 833.441 1930.92 827.716 1943.1 C 803.152 1944.42 639.005 1948.98 626.419 1938.08 C 624.14 1936.11 622.286 1932.9 622.275 1929.81 C 622.26 1925.9 623.793 1923.57 626.545 1920.93 C 639.773 1908.25 668.798 1895.54 685.583 1886.64 C 650.11 1875.57 615.063 1863.66 581.315 1847.93 C 565.582 1840.59 550.819 1831.24 535.127 1823.88 C 526.563 1857.46 512.344 1896.98 480.85 1915.82 C 474.969 1919.33 469.589 1922.36 462.587 1921.48 L 457.74 1919.66 C 455.745 1921.65 454.034 1923.5 451.062 1923.82 C 449.157 1924.03 446.789 1923.5 444.915 1923.15 C 440.482 1923.82 435.913 1924.29 431.551 1925.31 C 425.895 1925.2 424.303 1923.76 420.308 1920.03 C 417.391 1920.04 414.252 1919.72 411.463 1920.6 C 410.699 1921.77 409.799 1922.78 408.893 1923.84 C 401.492 1924.65 378.19 1906.53 369.564 1902.14 C 372.449 1906.4 385.287 1918.73 385.368 1922.41 L 383.408 1923.21 C 373.82 1921.7 361.71 1914.08 353.532 1908.82 L 349.847 1910.56 C 354.309 1913.19 365.634 1918.34 367.169 1923.55 L 365.388 1924.81 C 335.762 1928.01 276.625 1895.65 252.68 1877.76 C 238.999 1867.54 218.259 1851.61 216.219 1833.29 C 215.669 1828.35 216.35 1822.7 219.842 1818.9 C 223.39 1815.04 228.862 1813.83 233.915 1813.77 C 240.681 1813.69 246.588 1815.91 252.967 1817.79 C 289.928 1828.69 317.916 1854.19 345.263 1880.03 L 345.538 1879.37 C 311.587 1844.78 277.67 1806.95 254.194 1764.31 C 241.251 1740.81 214.141 1688.37 222.673 1661.62 C 224.088 1657.19 226.727 1653.46 230.966 1651.38 C 238.897 1647.47 249.332 1649.07 257.299 1651.95 C 275.611 1658.59 292.615 1672.07 306.877 1685.01 C 360.057 1733.27 396.745 1795.17 427.356 1859.41 C 436.916 1832.38 450.44 1806.95 472.826 1788.52 A 770.421 770.421 0 0 1 382.569 1719.43 C 211.386 1566.62 109.673 1338.92 97.1645 1110.85 A 871.951 871.951 0 0 1 321.204 487.164 A 924.07 924.07 0 0 1 670.158 245.034 C 685.688 239.042 713.944 226.057 729.419 225.223 C 732.967 226.335 734.858 228.632 737.388 231.255 C 754.251 222.875 782.297 215.016 800.928 209.441 z"/>
<path transform="translate(0,0)" fill="rgb(254,254,248)" d="M 666.567 739.008 C 669.792 739.557 672.632 740.266 675.708 741.39 C 677.767 743.713 677.687 743.533 677.581 746.638 C 675.178 747.544 674.009 747.811 671.47 747.341 C 668.579 745.227 667.804 742.218 666.567 739.008 z"/>
<path transform="translate(0,0)" fill="rgb(229,242,237)" d="M 707.92 723.998 L 709.64 722.575 C 713.99 723.19 719.728 723.816 722.473 727.819 C 722.838 728.351 723.011 728.991 723.28 729.577 L 722.15 730.539 C 717.356 729.83 712.807 728.654 708.143 727.383 L 707.92 723.998 z"/>
<path transform="translate(0,0)" fill="rgb(229,242,237)" d="M 588.299 657.909 C 585.193 660.979 582.081 663.272 578.38 665.582 C 575.026 664.349 567.647 662.724 565.676 659.993 C 568.504 658.869 570.13 659.002 573.077 659.007 C 573.277 659.008 573.475 658.973 573.673 658.955 C 578.684 659.555 583.355 658.657 588.299 657.909 z"/>
<path transform="translate(0,0)" fill="rgb(187,102,105)" d="M 1369.04 1732.53 C 1369.56 1732.82 1370.09 1733.07 1370.58 1733.4 C 1375.13 1736.38 1384.55 1746.85 1385.45 1752.23 C 1385.73 1753.89 1384.22 1754.78 1383.2 1755.95 C 1382.41 1756.83 1381.62 1757.37 1380.66 1758.04 C 1374.29 1753.59 1370.61 1739.93 1369.04 1732.53 z"/>
<path transform="translate(0,0)" fill="rgb(164,94,114)" d="M 891.098 833.277 C 899.127 832.408 916.341 832.57 923.155 837.447 C 925.591 839.19 925.012 841.494 925.163 844.18 C 916.447 841.261 896.814 839.641 891.098 833.277 z"/>
<path transform="translate(0,0)" fill="rgb(229,242,237)" d="M 738.815 726.635 C 743.336 727.653 745.795 731.408 748.675 734.733 C 737.478 743.508 745.894 741.114 741.769 749.09 C 737.672 746.849 731.247 743.758 729.274 739.254 C 728.591 737.694 728.366 736.151 728.997 734.573 C 730.71 730.284 734.906 728.519 738.815 726.635 z"/>
<path transform="translate(0,0)" fill="rgb(229,242,237)" d="M 573.673 658.955 C 572.198 656.561 570.356 654.354 570.544 651.421 C 571.581 650.021 572.455 649.117 573.772 647.962 C 575.493 646.451 576.169 645.313 577.286 643.362 C 590.199 649.81 597.648 659.996 606.53 670.946 L 602.275 673.156 C 598.164 668.277 593.74 661.215 588.299 657.909 C 583.355 658.657 578.684 659.555 573.673 658.955 z"/>
<path transform="translate(0,0)" fill="rgb(187,102,105)" d="M 593.135 784.73 C 604.128 789.863 617.191 792.107 629.05 794.418 L 628.964 795.381 L 624.78 796.772 A 1561.17 1561.17 0 0 0 607.217 801.42 A 755.186 755.186 0 0 1 590.117 796.687 C 590.858 792.663 592.081 788.684 593.135 784.73 z"/>
<path transform="translate(0,0)" fill="rgb(187,102,105)" d="M 623.525 809.063 C 633.307 808.922 642.622 809.496 652.204 811.552 C 650.671 815.292 649.327 820.074 646.42 822.932 L 643.709 822.712 C 632.418 818.716 621.075 816.885 609.281 815.163 L 623.525 809.063 z"/>
<path transform="translate(0,0)" fill="rgb(229,242,237)" d="M 606.53 670.946 C 617.461 682.189 627.395 693.857 642.064 700.239 L 640.597 705.845 C 637.747 705.879 635.793 707.252 633.381 708.607 L 632.215 709.271 C 628.563 708.783 623.982 705.346 621.776 702.475 C 621.99 700.919 622.233 699.424 622.588 697.892 C 622.692 697.443 622.805 696.996 622.914 696.549 C 617.745 688.167 608.985 680.435 602.275 673.156 L 606.53 670.946 z"/>
<path transform="translate(0,0)" fill="rgb(192,206,209)" d="M 642.064 700.239 C 651.349 704.394 677.365 717.925 685.992 718.299 C 689.003 718.43 692.6 716.974 695.375 715.948 C 699.38 717.878 703.293 719.602 706.762 722.433 L 706.212 723.771 C 707.583 724.197 707.013 724.263 707.92 723.998 L 708.143 727.383 C 706.899 727.303 705.742 727.164 704.533 726.85 C 696.946 724.877 689.141 724.41 681.489 722.284 C 667.643 718.436 653.777 711.602 640.597 705.845 L 642.064 700.239 z"/>
<path transform="translate(0,0)" fill="rgb(192,206,209)" d="M 885.264 773.053 C 894.068 772.795 902.316 773.615 911.003 774.978 L 892.127 790.218 C 887.983 792.792 875.131 792.012 869.821 792.326 C 874.355 785.453 879.708 779.111 885.264 773.053 z"/>
<path transform="translate(0,0)" fill="rgb(192,206,209)" d="M 914.556 744.711 C 920.057 748.392 924.509 752.843 929.062 757.597 C 925.239 761.446 921.138 765.025 917.119 768.668 L 905.784 767.769 L 891.719 766.082 C 898.523 758.359 906.858 751.553 914.556 744.711 z"/>
<path transform="translate(0,0)" fill="rgb(187,102,105)" d="M 679.762 758.121 C 682.274 758.799 685.113 759.391 687.047 761.253 C 690.005 764.1 691.318 768.917 691.559 772.884 C 692.391 786.54 686.578 798.74 677.898 808.779 C 675.118 809.38 671.729 809.537 669.111 808.35 C 678.304 790.549 681.429 778.195 679.762 758.121 z"/>
<path transform="translate(0,0)" fill="rgb(192,206,209)" d="M 568.684 923.783 C 576.925 930.332 585.51 931.263 595.592 931.974 C 591.324 938.511 587.012 944.843 582.147 950.952 L 578.906 953.292 C 574.074 954.038 569.676 952.905 565.302 950.763 C 562.64 949.459 559.83 947.317 559.043 944.311 C 557.563 938.654 565.778 928.377 568.684 923.783 z"/>
<path transform="translate(0,0)" fill="rgb(192,206,209)" d="M 934.252 763.782 C 940.53 773.064 944.613 783.68 947.971 794.291 C 938.124 793.322 928.199 793.035 918.317 792.575 C 912.447 792.172 906.534 792.042 900.654 791.795 C 913.039 783.519 923.441 773.948 934.252 763.782 z"/>
<path transform="translate(0,0)" fill="rgb(192,206,209)" d="M 1559.42 1848.92 C 1562.06 1852.02 1563.67 1855.8 1565.49 1859.42 C 1556.38 1870.52 1547.44 1882.54 1536.53 1891.95 C 1528.71 1898.7 1520.34 1903.7 1509.71 1902.94 A 1009.28 1009.28 0 0 1 1501.64 1891.19 C 1507.54 1891.2 1513.18 1890.44 1518.79 1888.53 C 1537.46 1882.17 1551.11 1866.25 1559.42 1848.92 z"/>
<path transform="translate(0,0)" fill="rgb(187,102,105)" d="M 605.08 759.52 C 616.47 763.96 624.247 769.523 637.188 772.903 C 646.271 775.276 655.764 775.037 664.802 777.472 L 665.409 779.518 C 664.355 783.152 663.013 785.741 660.955 788.906 C 658.587 789.051 656.302 788.859 653.959 788.521 C 645.512 787.3 603.453 777.6 599.295 772.082 C 599.044 766.748 601.874 763.47 605.08 759.52 z"/>
<path transform="translate(0,0)" fill="rgb(187,102,105)" d="M 639.035 737.171 C 643.74 736.803 648.801 737.62 653.51 738.005 C 654.482 741.789 655.377 745.991 657.099 749.512 C 659.912 755.262 668.15 763.77 667.017 770.314 L 665.078 771.46 C 660.485 771.637 655.987 769.475 651.714 767.942 C 638.833 763.875 625.641 760.08 613.798 753.469 C 620.48 743.254 627.606 740.1 639.035 737.171 z"/>
<path transform="translate(0,0)" fill="rgb(254,254,248)" d="M 1413.85 1661.64 C 1419.68 1664.02 1424.95 1667.21 1430.35 1670.42 C 1414.49 1686.51 1388.24 1702.32 1368.38 1713.56 C 1367.72 1713.79 1366.37 1713.73 1365.66 1713.77 C 1360.77 1710.11 1357.02 1704.91 1353.1 1700.25 C 1375.68 1690.99 1396.98 1679.63 1413.85 1661.64 z"/>
<path transform="translate(0,0)" fill="rgb(192,206,209)" d="M 745.942 1847.78 C 758.865 1857.73 765.376 1879.21 778.917 1891.21 C 799.205 1890.46 819.199 1880.65 837.484 1872.68 C 836.213 1876.66 834.594 1880.18 832.655 1883.88 C 815.039 1898.91 792.72 1900.76 770.587 1901.45 C 758.641 1887.1 747.402 1871.59 738.508 1855.17 L 745.942 1847.78 z"/>
<path transform="translate(0,0)" fill="rgb(254,254,248)" d="M 787.814 1618.69 C 815.521 1620.48 843.878 1623.6 871.329 1627.78 C 870.985 1635.44 870.391 1643.13 868.642 1650.61 A 1097.42 1097.42 0 0 0 817.63 1635.44 C 807.667 1632.83 794.488 1631.52 785.364 1627.08 C 784.752 1624.02 786.531 1621.39 787.814 1618.69 z"/>
<path transform="translate(0,0)" fill="rgb(192,206,209)" d="M 866.352 799.023 C 892.217 798.106 918.146 799.288 944 800.085 C 938.195 804.418 928.338 810.138 926.87 817.514 C 926.485 819.447 926.363 820.574 925.166 822.223 L 920.76 821.646 C 894.663 819.442 870.377 819.72 844.285 821.746 C 850.643 812.471 857.693 806.204 866.352 799.023 z"/>
<path transform="translate(0,0)" fill="rgb(164,94,114)" d="M 869.148 1073.78 C 873.145 1077.5 883.718 1099.65 889.734 1107.08 C 924.724 1150.25 990.288 1128.81 1037.76 1134.44 C 1039.74 1134.68 1041.25 1134.42 1042.51 1136.01 L 1039.78 1137.19 C 978.772 1149.08 935.762 1139.84 877.11 1124.74 C 873.415 1108.06 871.291 1090.73 869.148 1073.78 z"/>
<path transform="translate(0,0)" fill="rgb(143,187,163)" d="M 233.192 1831.53 C 281.204 1842.61 315.702 1880.11 353.532 1908.82 L 349.847 1910.56 C 342.236 1908.77 332.72 1902.76 325.683 1899.16 C 293.359 1882.6 253.381 1862.79 233.192 1831.53 z"/>
<path transform="translate(0,0)" fill="rgb(187,102,105)" d="M 803.443 1574.34 C 819.23 1576.38 859.551 1580.75 869.07 1594.05 C 872.011 1598.16 873.527 1603.81 872.548 1608.8 C 869.578 1610.23 867.071 1609.29 863.848 1608.87 C 844.143 1608.6 815.692 1603.66 795.029 1601.82 C 797.604 1592.68 799.778 1583.11 803.443 1574.34 z"/>
<path transform="translate(0,0)" fill="rgb(187,102,105)" d="M 1441.34 1680.91 C 1448.78 1682.84 1465.14 1699.66 1471.42 1705.31 C 1446.94 1710.09 1425.33 1720.06 1404.1 1732.89 C 1401.03 1735.07 1398.1 1737.48 1395.14 1739.8 A 1183.66 1183.66 0 0 0 1379.64 1723.38 C 1400.77 1710.91 1422.37 1696.45 1441.34 1680.91 z"/>
<path transform="translate(0,0)" fill="rgb(187,102,105)" d="M 1393.26 1759.08 C 1393.82 1759.51 1394.39 1759.93 1394.93 1760.38 C 1410.68 1773.55 1424.26 1790.36 1437.83 1805.68 A 4853.01 4853.01 0 0 0 1482.5 1854.74 C 1485.21 1857.67 1503.65 1875.56 1503.88 1877.69 L 1496.6 1879.43 C 1492.89 1878.19 1489.94 1876.37 1486.89 1873.91 C 1476.89 1865.83 1468.16 1855.66 1459.08 1846.57 C 1441.93 1829.39 1424.48 1812.49 1408.48 1794.22 A 340.674 340.674 0 0 1 1385.33 1764.94 C 1387.79 1762.77 1390.58 1760.97 1393.26 1759.08 z"/>
<path transform="translate(0,0)" fill="rgb(187,102,105)" d="M 774.191 1642.42 C 805.889 1651.54 838.121 1657.63 869.461 1668.27 C 869.177 1673.89 870.895 1681.38 866.999 1685.88 L 863.017 1685.7 C 830.841 1676.08 798.095 1669.92 765.698 1661.24 L 774.191 1642.42 z"/>
<path transform="translate(0,0)" fill="rgb(187,102,105)" d="M 1568.89 1877.71 C 1578.26 1884.96 1588.69 1917.29 1592.95 1929.58 C 1552.36 1930.32 1511.84 1929.17 1471.25 1930.77 L 1455.1 1931.1 C 1467.32 1922.6 1481.15 1916.7 1495.02 1911.48 A 140.78 140.78 0 0 0 1497.83 1913.8 C 1506.55 1920.8 1524.17 1924.82 1535.27 1923.31 C 1542.96 1922.26 1542.98 1917.72 1542.7 1911.23 C 1542.64 1909.79 1542.32 1908.75 1543.01 1907.4 C 1547.31 1898.99 1562.3 1886.04 1568.89 1877.71 z"/>
<path transform="translate(0,0)" fill="rgb(254,254,248)" d="M 956.382 1348.82 C 974.802 1338.46 994.135 1329.91 1012.54 1319.64 C 1022.46 1327.58 1032.85 1333.18 1043.9 1339.32 L 1046.17 1338.82 L 1046.58 1339.5 L 1042.24 1343.54 C 1044.03 1343.66 1044.67 1342.46 1046.27 1342.6 C 1041.16 1350.54 1008.3 1372.34 998.923 1377.59 C 996.995 1377.25 995.658 1376.53 993.88 1375.71 C 984.635 1366.31 967.433 1357.35 956.382 1348.82 z"/>
<path transform="translate(0,0)" fill="rgb(54,45,79)" d="M 1043.9 1339.32 L 1046.17 1338.82 L 1046.58 1339.5 L 1042.24 1343.54 C 1044.03 1343.66 1044.67 1342.46 1046.27 1342.6 C 1041.16 1350.54 1008.3 1372.34 998.923 1377.59 C 996.995 1377.25 995.658 1376.53 993.88 1375.71 C 1008.9 1362.12 1027.96 1352.04 1043.9 1339.32 z"/>
<path transform="translate(0,0)" fill="rgb(254,254,248)" d="M 1024.87 1177.59 C 1028.66 1177.14 1032 1176.82 1035.79 1177.3 C 1043.61 1181.54 1065.03 1226.8 1070.38 1236.92 C 1060.43 1237.28 1051.54 1237.72 1042.27 1241.82 L 1033.99 1233.34 C 1015.38 1215.18 996.292 1197.67 978.427 1178.75 C 993.998 1178.97 1009.34 1179.12 1024.87 1177.59 z"/>
<path transform="translate(0,0)" fill="rgb(187,102,105)" d="M 844.095 1694.31 L 865.342 1700.77 C 861.474 1744.89 850.975 1789.01 838.73 1831.47 C 836.523 1839.13 834.418 1852.15 828.886 1857.85 C 823.963 1861.23 818.904 1863.74 813.53 1866.31 A 669.192 669.192 0 0 0 844.095 1694.31 z"/>
<path transform="translate(0,0)" fill="rgb(192,206,209)" d="M 946.972 805.871 C 947.39 806.191 947.843 806.469 948.226 806.83 C 958.109 816.162 961.802 842.184 963.373 854.975 C 968.331 895.35 955.467 937.35 930.228 969.175 C 924.134 976.86 909.89 993.937 899.371 993.956 C 894.993 993.963 892.472 991.012 889.475 988.248 C 903.317 973.85 918.103 963.592 930.15 946.801 C 945.5 925.403 956.55 894.863 951.883 868.298 C 949.234 853.225 940.334 831.546 927.638 822.623 C 933.779 816.728 940.469 811.361 946.972 805.871 z"/>
<path transform="translate(0,0)" fill="rgb(187,102,105)" d="M 653.196 1921.69 C 675.073 1906.11 710.721 1895.56 736.363 1886.09 A 57.5395 57.5395 0 0 1 744.336 1894.56 C 747.18 1898.31 753.082 1905 752.392 1909.76 L 746.309 1911.41 C 743.13 1915.16 741.629 1920.25 739.817 1924.78 C 745.601 1921.2 750.857 1917.06 756.197 1912.86 L 758.436 1916.31 C 759.501 1917.97 760.524 1919.68 761.792 1921.19 C 763.983 1923.79 766.771 1924.15 769.943 1924.55 L 771.136 1924.21 C 774.242 1923.29 776.525 1922.34 779.293 1920.69 C 784.73 1917.44 809.384 1913.62 818.077 1911.02 L 817.555 1924.73 C 806.563 1926.73 794.689 1927.05 783.516 1927.2 C 755.894 1931.87 683.506 1924.61 653.196 1921.69 z"/>
<path transform="translate(0,0)" fill="rgb(187,102,105)" d="M 676.186 822.118 L 678.361 821.875 C 688.235 827.651 696.931 838.64 704.892 846.733 C 715.468 857.483 726.188 868.069 737.816 877.688 C 729.45 886.123 722.36 894.493 716.046 904.581 L 708.496 916.954 C 697.861 904.904 686.895 893.117 676.085 881.223 C 676.45 860.969 666.857 844.978 662.673 825.653 C 667.208 824.636 671.695 823.32 676.186 822.118 z"/>
<path transform="translate(0,0)" fill="rgb(187,102,105)" d="M 1396.78 1627.83 C 1400.24 1631.18 1402.42 1646.35 1403.9 1651.58 C 1377.11 1672.54 1344.98 1687.11 1313.6 1699.77 C 1307.28 1694.18 1301.56 1687.93 1295.74 1681.84 C 1288.47 1673.73 1280.2 1666.46 1272.25 1659.02 C 1283.67 1658.85 1295.07 1659.84 1306.53 1659.51 C 1339.38 1658.56 1371.26 1648.89 1396.78 1627.83 z"/>
<path transform="translate(0,0)" fill="rgb(233,121,112)" d="M 845.029 1028.84 C 848.062 1028.86 850.643 1029.01 853.592 1029.74 C 857.58 1033.88 863.563 1116.22 869.967 1134.03 C 909.751 1151.97 978.857 1158.45 1022.28 1150.77 C 1034.76 1148.56 1045.6 1143.55 1057.6 1140.38 C 1060.22 1139.68 1061.44 1140.05 1063.73 1141.31 C 1065.59 1144.6 1065.07 1148.06 1064.97 1151.7 C 1064.71 1151.94 1064.45 1152.18 1064.18 1152.4 C 1031.95 1177.27 902.015 1158.04 862.605 1151.68 C 850.993 1111.86 847.89 1070.04 845.029 1028.84 z"/>
<path transform="translate(0,0)" fill="rgb(187,102,105)" d="M 1079.32 839.412 C 1083.86 838.735 1088.77 838.912 1093.37 838.745 C 1098.94 853.869 1102.17 869.993 1104.64 885.88 C 1077.78 885.509 1053.75 886.869 1027.58 893.728 C 1020.12 895.906 1012.89 898.423 1005.61 901.163 C 1011.83 883.952 1015.03 868.543 1015.18 850.199 C 1036.51 844.939 1057.36 840.995 1079.32 839.412 z"/>
<path transform="translate(0,0)" fill="rgb(254,254,248)" d="M 1086.66 1149.78 C 1097.14 1161.48 1127.46 1214.14 1133.21 1229.18 C 1125.49 1232.84 1117.55 1236.37 1109.58 1239.46 C 1103.42 1241.85 1099.13 1244.49 1092.85 1241.71 L 1075.15 1237.07 C 1064.97 1216.38 1054.53 1195.59 1041 1176.86 C 1061.18 1174.38 1067.09 1175.06 1078.69 1157.78 C 1081.14 1154.14 1082.66 1151.84 1086.66 1149.78 z"/>
<path transform="translate(0,0)" fill="rgb(187,102,105)" d="M 598.03 826.298 C 612.767 827.147 628.786 829.164 641.454 837.353 C 653.938 845.423 657.811 856.864 660.712 870.606 C 644.218 871.34 631.884 875.195 618.478 884.823 A 841.962 841.962 0 0 1 603.224 899.004 C 595.532 899.218 586.765 898.851 580.061 894.669 C 574.565 891.24 571.547 885.614 570.313 879.377 C 567.582 865.57 573.664 848.387 581.744 837.07 C 586.602 830.266 589.778 827.659 598.03 826.298 z"/>
<path transform="translate(0,0)" fill="rgb(187,102,105)" d="M 656.208 885.109 C 656.808 885.092 657.407 885.034 658.006 885.058 C 660.663 885.163 661.689 885.53 663.686 887.286 C 668.957 891.917 673.605 898.329 678.28 903.624 A 915.969 915.969 0 0 0 705.89 933.836 C 684.346 942.093 665.816 953.976 647.668 968.084 C 642.632 972.129 638.903 976.416 635.214 981.658 C 629.07 965.683 620.184 932.711 611.16 920.058 C 621.92 901.269 635.445 890.941 656.208 885.109 z"/>
<path transform="translate(0,0)" fill="rgb(254,254,230)" d="M 1046.27 1342.6 C 1052.88 1339.73 1078.64 1345.96 1095.64 1338.32 C 1102.74 1335.13 1108.93 1328.63 1115.37 1324.28 C 1117.34 1322.95 1119.01 1322.3 1121.43 1322.44 C 1122.86 1324.3 1122.8 1323.46 1122.51 1325.46 C 1119.9 1343.34 1066.06 1405.92 1049.63 1417.86 C 1042.68 1412.87 1000.46 1382.08 998.923 1377.59 C 1008.3 1372.34 1041.16 1350.54 1046.27 1342.6 z"/>
<path transform="translate(0,0)" fill="rgb(143,187,163)" d="M 1232.56 1640.42 C 1239.53 1646.51 1245.49 1656.16 1251.71 1663.27 C 1267.06 1680.79 1283.36 1697.43 1298.57 1715.1 C 1285.08 1706.25 1274.28 1693.08 1260.84 1684.74 C 1257.51 1682.68 1254.14 1681.1 1250.19 1682.01 L 1249.24 1683.6 C 1249.56 1685.87 1250.02 1687.45 1251.26 1689.41 C 1262.4 1707.08 1308.06 1736.86 1326.14 1751.12 C 1330.99 1754.94 1339.55 1765.49 1344.71 1766.69 L 1346.32 1765.02 C 1347.38 1760.87 1347.72 1756.88 1346.76 1752.64 C 1344.03 1740.5 1333.47 1733.25 1323.77 1726.82 C 1318.28 1723.88 1312.72 1721.05 1307.2 1718.18 C 1317.74 1716.06 1327.41 1713.23 1337.27 1708.9 L 1351.22 1723.16 C 1351.97 1746.43 1359.9 1766.13 1375.45 1783.46 C 1369.04 1782.94 1362.55 1782.06 1356.22 1780.93 C 1313.78 1773.32 1277.21 1752.93 1252.48 1717.01 C 1236.85 1694.3 1227.58 1668.11 1232.56 1640.42 z"/>
<path transform="translate(0,0)" fill="rgb(254,254,230)" d="M 1058.02 1251.14 C 1067.77 1250.52 1076.41 1251.16 1085.2 1255.83 A 42.9638 42.9638 0 0 1 1106.41 1282.32 C 1109.15 1292.04 1108.73 1302.89 1103.29 1311.62 C 1097.24 1321.35 1087.7 1325.38 1077.02 1327.74 C 1067.3 1329.47 1058.06 1329.31 1049.02 1324.91 C 1039.14 1320.1 1032.06 1311.22 1028.66 1300.86 C 1025.33 1290.72 1025.37 1279.14 1030.53 1269.6 C 1036.43 1258.68 1046.68 1254.25 1058.02 1251.14 z"/>
<path transform="translate(0,0)" fill="rgb(54,45,79)" d="M 1054.49 1259.14 C 1061.15 1258.72 1066.24 1258.7 1072.47 1261.62 C 1082.95 1266.54 1091.76 1276.23 1095.63 1287.15 C 1098.19 1294.38 1098.6 1302.6 1095.06 1309.59 C 1091.43 1316.75 1085.14 1320.37 1077.77 1322.7 C 1070.19 1324.02 1063.09 1324.38 1055.84 1321.39 C 1046.15 1317.4 1039.35 1308.77 1035.64 1299.18 C 1032.62 1291.37 1031.79 1282.34 1035.35 1274.55 C 1039.27 1265.99 1046.05 1262.16 1054.49 1259.14 z"/>
<path transform="translate(0,0)" fill="rgb(164,94,114)" d="M 1045.58 1300.53 C 1050.34 1301.13 1055.35 1300.89 1060.15 1300.96 L 1061.14 1313.56 C 1059.99 1313.31 1058.84 1313.06 1057.71 1312.72 C 1051.34 1310.81 1048.52 1306.1 1045.58 1300.53 z"/>
<path transform="translate(0,0)" fill="rgb(164,94,114)" d="M 1065.9 1274.49 C 1074 1277.88 1079.51 1283.57 1083.97 1291.03 L 1065.73 1292 C 1065.56 1286.15 1065.73 1280.33 1065.9 1274.49 z"/>
<path transform="translate(0,0)" fill="rgb(164,94,114)" d="M 1052 1274.83 L 1056.09 1274.99 C 1058.6 1276.55 1059.78 1279.26 1060.4 1282.2 C 1061 1285.03 1060.16 1289.28 1058.26 1291.48 C 1057.21 1292.7 1053.78 1292.59 1052.17 1292.79 C 1050.04 1292.75 1048.15 1292.34 1046.07 1291.9 C 1044.46 1290.14 1043.59 1289.24 1043.63 1286.63 C 1043.71 1281.77 1048.4 1277.41 1052 1274.83 z"/>
<path transform="translate(0,0)" fill="rgb(164,94,114)" d="M 1084.2 1298.32 L 1085.47 1298.54 L 1086.55 1300.53 C 1086.06 1303 1085.64 1304.64 1084.04 1306.64 C 1078.74 1313.31 1074.24 1313.77 1066.28 1314.49 C 1064.49 1310.98 1064.36 1305.21 1063.67 1301.24 A 500.129 500.129 0 0 0 1084.2 1298.32 z"/>
<path transform="translate(0,0)" fill="rgb(254,254,248)" d="M 1084.17 1010.6 C 1088.3 1012.09 1092.31 1015.08 1096.03 1017.46 C 1142.34 1047.08 1190.57 1124.32 1218.02 1172.43 C 1214.67 1176.37 1210.78 1179.81 1207.02 1183.34 L 1194.28 1193.87 C 1182.9 1172.32 1146.93 1114.38 1128.03 1100.51 C 1122.96 1062.46 1103.58 1041.06 1084.17 1010.6 z"/>
<path transform="translate(0,0)" fill="rgb(192,206,209)" d="M 966.485 735.03 C 976.227 734.825 986.887 737.987 995.885 741.519 A 169.261 169.261 0 0 1 1090.33 831.405 L 1077.75 832.136 C 1056.36 833.539 1035.37 836.377 1015.2 843.877 C 1009.09 803.236 996.399 764.7 966.485 735.03 z"/>
<path transform="translate(0,0)" fill="rgb(254,254,248)" d="M 1128.03 1103.65 C 1152.86 1127.87 1171.17 1167.19 1191.74 1195.78 C 1178.46 1206.04 1164.69 1214.52 1149.72 1222.04 L 1136.51 1227.95 C 1132.88 1210.29 1103.1 1166.97 1092.31 1149.13 L 1093.1 1148.68 C 1110.58 1138.48 1122.94 1123.34 1128.03 1103.65 z"/>
<path transform="translate(0,0)" fill="rgb(143,187,163)" d="M 431.551 1925.31 C 435.438 1897.17 442.238 1868.17 455.839 1843.06 C 469.286 1818.23 490.679 1787.5 519.007 1779.11 A 50.9975 50.9975 0 0 1 519.857 1782.89 C 525.438 1811.95 506.716 1858.71 491.331 1882.68 C 482.594 1896.3 471.717 1908.19 462.587 1921.48 L 457.74 1919.66 C 455.745 1921.65 454.034 1923.5 451.062 1923.82 C 449.157 1924.03 446.789 1923.5 444.915 1923.15 C 440.482 1923.82 435.913 1924.29 431.551 1925.31 z"/>
<path transform="translate(0,0)" fill="rgb(54,45,79)" d="M 444.915 1923.15 C 449.231 1908.45 457.932 1895 463.321 1880.61 C 469.309 1864.62 471.137 1833.18 482.157 1820.45 C 483.931 1818.4 484.91 1818.13 487.529 1818.07 C 488.577 1818.89 489.964 1819.58 490.448 1820.88 C 494.37 1831.42 463.006 1905.56 457.74 1919.66 C 455.745 1921.65 454.034 1923.5 451.062 1923.82 C 449.157 1924.03 446.789 1923.5 444.915 1923.15 z"/>
<path transform="translate(0,0)" fill="rgb(252,207,189)" d="M 738.799 900.688 C 741.835 903.275 744.575 907.846 747.184 911.021 C 754.047 919.374 761.026 927.823 768.828 935.319 C 778.174 944.298 788.928 953.546 799.609 960.857 C 805.841 965.122 812.974 968.789 818.811 973.528 C 825.827 979.223 830.011 988.354 838.244 992.674 C 845.745 996.611 854.261 995.521 862.07 998.222 C 871.103 1001.35 880.11 1006.54 888.842 1010.58 C 879.683 1013.2 869.621 1014.35 860.228 1016.08 C 852.153 1017.49 844.274 1018.93 836.035 1018.5 C 826.74 1018.01 817.536 1015.55 808.546 1013.25 C 764.846 1002.09 752.458 981.116 723.751 949.022 C 726.644 945.343 731.373 940.071 730.327 935.024 C 729.331 930.219 724.142 927.123 720.472 924.392 C 725.741 915.775 732.1 908.214 738.799 900.688 z"/>
<path transform="translate(0,0)" fill="rgb(192,206,209)" d="M 1004.63 984.266 C 1012.45 983.585 1021.27 986.015 1028.55 988.798 C 1061.6 1001.45 1086.94 1032.56 1100.87 1064.25 C 1107.26 1078.8 1111.99 1095.91 1105.64 1111.27 C 1100.89 1122.78 1092.46 1129.86 1081.28 1134.6 C 1076.54 1131.2 1072.33 1128.5 1066.62 1126.89 C 1055.14 1123.65 1042.32 1123.92 1030.48 1123.87 C 1001.65 1123.75 963.558 1127.29 936.279 1119.49 C 897.175 1108.32 881.234 1063.64 863.448 1031.32 C 868.947 1030.76 874.433 1029.72 879.89 1028.84 C 884.186 1034.88 887.744 1041.01 891.183 1047.57 C 898.711 1063.28 905.671 1081.96 919.125 1093.65 C 926.746 1100.27 936.468 1104.75 946.34 1106.73 C 971.652 1111.8 998.892 1108.07 1024.64 1109.47 C 1035.83 1110.08 1068.22 1115.74 1075.49 1114.96 C 1080.05 1114.46 1083.78 1111.37 1086.52 1107.88 C 1092.24 1100.59 1093.39 1091.91 1091.94 1082.96 C 1087.71 1056.94 1067.75 1031.47 1046.58 1016.72 C 1004.49 987.413 971.864 994.449 925.248 1002.61 C 948.593 993.141 979.548 989.451 1004.63 984.266 z"/>
<path transform="translate(0,0)" fill="rgb(187,102,105)" d="M 1226.65 1183.77 C 1232.86 1189.98 1244.52 1216.39 1247.95 1225.33 A 94.5977 94.5977 0 0 1 1245.81 1229.46 C 1225.11 1267.59 1169.72 1292.84 1130.18 1304.5 L 1121.03 1307.28 C 1121.64 1288.63 1119.3 1273.77 1110.25 1257.31 C 1151.56 1242.76 1199.93 1219.18 1226.65 1183.77 z"/>
<path transform="translate(0,0)" fill="rgb(254,254,230)" d="M 1177.78 1303.01 C 1187.68 1315.73 1198.83 1418.73 1201.35 1441.09 A 171.619 171.619 0 0 1 1157.75 1452.21 L 1144.94 1453.25 C 1130.16 1424.25 1135.08 1398.03 1137.4 1366.95 A 523.289 523.289 0 0 0 1138.34 1318.24 C 1151.65 1313.71 1165.11 1309.13 1177.78 1303.01 z"/>
<path transform="translate(0,0)" fill="rgb(192,206,209)" d="M 765.228 1473.67 C 772.762 1480.64 780.744 1522.02 782.29 1532.45 C 784.201 1545.35 786.782 1560.99 784.533 1573.92 C 781.181 1593.2 757.607 1645.6 745.656 1660.53 C 743.982 1662.62 742.281 1665.15 739.558 1665.4 C 728.415 1636.94 720.5 1613.51 717.692 1582.68 C 716.836 1573.28 716.285 1563.43 717.908 1554.08 C 723.016 1524.63 746.555 1496.24 765.228 1473.67 z"/>
<path transform="translate(0,0)" fill="rgb(54,45,79)" d="M 758.792 1490.61 C 759.225 1490.92 759.713 1491.15 760.089 1491.53 C 766.483 1497.84 771.612 1538.3 772.705 1548.65 C 775.774 1577.71 767.569 1599.51 756.007 1625.72 C 752.233 1634.27 748.656 1643.65 742.766 1650.99 C 731.693 1636.1 728.493 1609.74 726.903 1591.8 C 723.072 1548.55 730.72 1524.22 758.792 1490.61 z"/>
<path transform="translate(0,0)" fill="rgb(192,206,209)" d="M 755.376 1505.65 C 755.561 1506.01 755.775 1506.35 755.932 1506.71 C 758.859 1513.52 759.263 1523.96 760.383 1531.38 C 767.557 1578.91 754.405 1589.15 740.237 1631.52 L 739.866 1632.65 C 736.714 1619.05 733.69 1605.61 732.242 1591.69 C 728.703 1557.67 733.537 1532.61 755.376 1505.65 z"/>
<path transform="translate(0,0)" fill="rgb(187,102,105)" d="M 758.226 1671.57 C 779.855 1682.17 806.908 1685.6 830.26 1691.6 C 829.498 1748.75 817.817 1802.41 802.941 1857.33 C 801.944 1861.64 800.37 1865.9 799.023 1870.12 L 784.861 1875.25 C 779.092 1863.2 772.315 1853.49 764.142 1843.03 C 773.297 1794.61 767.552 1727.66 751.748 1681.36 C 752.691 1677.68 755.891 1674.5 758.226 1671.57 z"/>
<path transform="translate(0,0)" fill="rgb(187,102,105)" d="M 1481.34 1718.41 L 1483.37 1718.25 C 1488.36 1721.88 1492.4 1727.6 1496.34 1732.4 C 1522.77 1764.6 1534.12 1801.13 1549.68 1838.84 C 1542.38 1852.78 1530.23 1864.89 1517.83 1874.36 C 1512.05 1866.65 1505.46 1859.54 1499.09 1852.31 C 1469.42 1816.96 1434.21 1785.75 1405.81 1749.26 C 1428.96 1731.98 1452.71 1722.09 1481.34 1718.41 z"/>
<path transform="translate(0,0)" fill="rgb(252,207,189)" d="M 862.207 848.979 C 877.359 848.708 921.543 847.65 932.098 857.81 C 938.216 863.699 939.112 877.237 938.755 885.21 C 937.368 916.227 920.241 943.406 897.487 963.73 C 885.844 974.129 871.853 984.514 855.381 983.297 C 848.132 982.761 840.918 979.577 836.29 973.84 C 833.333 970.175 832.422 965.991 833.133 961.382 C 833.823 956.909 836.076 952.5 838.006 948.427 L 835.506 941.719 L 836.427 939.95 L 841.201 938.571 L 836.85 937.464 L 839.808 934.931 C 836.731 934.95 836.013 935.391 833.585 933.358 C 831.866 928.539 834.01 923.106 835.258 918.348 C 841.783 919.653 848.412 921.249 855.1 920.895 L 856.434 918.918 C 850.434 909.58 822.28 901.424 821.617 891.718 C 836.438 875.513 853.017 871.363 862.207 848.979 z"/>
<path transform="translate(0,0)" fill="rgb(54,45,79)" d="M 839.808 934.931 C 847.777 933.24 858.39 936.904 865.243 941.165 C 866.537 941.97 867.614 942.933 868.745 943.944 L 868.482 945.08 C 859.153 945.101 850.411 940.055 841.201 938.571 L 836.85 937.464 L 839.808 934.931 z"/>
<path transform="translate(0,0)" fill="rgb(54,45,79)" d="M 876.944 855.44 C 878.619 855.296 880.312 855.181 881.994 855.278 C 888.548 855.655 897.781 859.15 902.128 864.25 C 903.51 865.871 903.187 865.077 903.081 867.17 C 899.286 868.084 887.613 861.263 881.137 860.05 L 879.294 859.717 C 886.374 867.46 893.472 875.361 899.123 884.226 C 898.677 885.423 898.451 886.169 897.761 887.315 C 896.444 889.507 894.866 890.369 892.518 891.007 C 886.441 887.739 886.039 876.884 881.649 871.053 L 880.834 869.993 C 880.274 873.584 879.846 878.754 878.148 881.963 C 876.889 884.342 875.159 885.067 872.767 885.983 C 870.775 885.29 870.239 885.312 869.148 883.419 C 866.254 878.4 865.864 869.365 867.751 864.016 C 868.211 862.713 868.582 861.715 868.845 860.348 L 866.265 857.086 L 866.865 856.181 L 876.944 855.44 z"/>
<path transform="translate(0,0)" fill="rgb(192,206,209)" d="M 963.78 1010.38 C 970.778 1009.43 978.423 1009.63 985.438 1010.38 A 111.028 111.028 0 0 1 1061.5 1051.98 C 1068.87 1061.35 1079.91 1079.67 1077.83 1091.98 C 1077.14 1096.06 1075.12 1097.98 1071.8 1100.18 C 1059.08 1100.52 1037.64 1095.73 1022.86 1095.03 C 999.768 1093.94 976.138 1097.51 953.176 1094.58 C 944.803 1093.52 937.687 1091.13 930.226 1087.24 C 910.114 1072.68 900.218 1046.47 885.686 1026.7 L 896.727 1025.21 C 906.747 1034.95 913.569 1046.6 920.725 1058.46 C 924.49 1064.7 929.403 1073.57 936.954 1075.45 C 939.324 1074.4 939.538 1074.6 940.555 1072.27 C 938.945 1059.07 915.042 1034.82 906.012 1024.97 C 925.076 1019.32 944.01 1013.02 963.78 1010.38 z"/>
<path transform="translate(0,0)" fill="rgb(252,207,189)" d="M 705.475 948.905 C 707.246 949.77 706.979 949.356 707.974 950.647 C 729.863 979.037 752.617 1009.03 788.078 1020.67 C 802.868 1025.52 818.83 1028.17 834.011 1031.72 C 835.688 1055.11 838.402 1078.46 840.872 1101.78 A 675.532 675.532 0 0 1 803.527 1090.04 C 798.13 1088.41 792.735 1086.14 787.46 1084.13 C 734.588 1064.01 680.914 1030.4 656.988 977.138 C 672.69 965.429 687.127 956.172 705.475 948.905 z"/>
<path transform="translate(0,0)" fill="rgb(192,206,209)" d="M 935.104 723 C 938.834 725.649 942.304 730.604 945.281 734.102 C 961.782 753.486 975.703 773.398 984.318 797.623 C 998.012 836.125 1000.34 883.053 982.493 920.493 C 1012.6 905.832 1041.11 895.018 1074.95 892.666 C 1082.03 892.174 1100.58 889.773 1105.89 894.375 C 1107.72 902.681 1107 912.227 1107.09 920.738 C 1084.48 931.904 1060.58 940.893 1036.76 949.123 C 997.752 961.157 959.075 974.902 920.235 987.552 C 926.631 981.464 932.83 975.25 938.533 968.499 C 971.374 929.626 980.433 876.155 966.298 827.774 C 963.377 817.775 957.879 808.935 953.976 799.357 C 951.754 793.904 950.671 788.032 948.586 782.535 C 945.824 775.25 936.974 765.688 936.381 758.393 C 937.557 754.703 938.008 754.459 940.871 752.123 L 940.737 751.149 A 352.822 352.822 0 0 1 933.347 752.387 C 928.035 749.373 923.195 742.443 919.087 737.825 C 923.925 732.219 928.953 727.161 935.104 723 z"/>
<path transform="translate(0,0)" fill="rgb(143,187,163)" d="M 1295.63 1783.75 C 1325.96 1798.07 1359.86 1804.79 1393.28 1806.26 C 1403.73 1815.18 1413.27 1825.77 1423.26 1835.27 C 1378.79 1855.86 1334.68 1874.24 1287.71 1888.55 A 1062.37 1062.37 0 0 1 1180.75 1913.67 C 1192.37 1901.63 1205.45 1890.94 1217.33 1879.14 C 1247.07 1849.63 1272.43 1818.58 1295.63 1783.75 z"/>
<path transform="translate(0,0)" fill="rgb(54,45,79)" d="M 1304.53 1862.78 C 1307.11 1863.17 1307.46 1863.25 1309.44 1864.93 C 1308.99 1871.77 1295.81 1881.29 1290.83 1885.8 C 1288.06 1885.83 1286.72 1885.33 1284.73 1883.54 C 1284.64 1882.65 1284.52 1882.12 1284.78 1881.19 C 1286.88 1873.62 1298.06 1866.71 1304.53 1862.78 z"/>
<path transform="translate(0,0)" fill="rgb(143,187,163)" d="M 239.635 1667.51 C 247.916 1670.34 255.879 1673.6 263.519 1677.89 C 313.13 1705.77 366.642 1782.17 390.231 1833.6 C 402.994 1861.43 411.962 1890.65 420.308 1920.03 C 417.391 1920.04 414.252 1919.72 411.463 1920.6 C 405.381 1915.27 400.434 1908.73 394.568 1903.16 C 379.869 1889.19 365.038 1875.48 351.194 1860.63 C 305.4 1811.5 248.386 1735.34 239.635 1667.51 z"/>
<path transform="translate(0,0)" fill="rgb(54,45,79)" d="M 277.881 1716.69 C 278.26 1716.8 278.645 1716.89 279.019 1717.02 C 281.891 1717.99 283.872 1719.32 285.942 1721.5 C 296.185 1732.26 304.656 1745.76 314.038 1757.38 C 335.53 1783.98 378.272 1829.98 391.31 1859.33 C 392.48 1861.96 392.473 1862.15 391.427 1864.67 C 389.538 1864.33 387.775 1863.86 385.929 1863.34 C 360.628 1833.5 336.257 1802.69 311.809 1772.14 C 302.107 1760.02 283.425 1739.89 277.377 1726.54 C 275.686 1722.81 276.425 1720.26 277.881 1716.69 z"/>
<path transform="translate(0,0)" fill="rgb(143,187,163)" d="M 1396.94 1404.41 C 1398.13 1404.32 1399.3 1404.28 1400.49 1404.28 C 1425.84 1404.27 1457.77 1412.03 1476.23 1430.49 C 1479.14 1440.16 1480.78 1450.27 1482.45 1460.21 C 1443.21 1469.84 1412.5 1497.9 1389.12 1529.63 L 1373.52 1552.53 C 1349.92 1518.36 1335.16 1480.9 1323.31 1441.34 C 1324.23 1440.03 1325.2 1438.78 1326.24 1437.56 C 1343.66 1416.99 1370.56 1406.4 1396.94 1404.41 z"/>
<path transform="translate(0,0)" fill="rgb(254,254,248)" d="M 1256.48 1241.7 C 1268.31 1254.71 1297.9 1341.78 1305.08 1362.02 C 1284.64 1391.96 1258.66 1413.27 1226.82 1429.96 C 1220.46 1433.18 1213.74 1435.9 1207.23 1438.81 C 1203.22 1416.58 1202.08 1393.76 1198.94 1371.38 C 1195.59 1347.49 1189.67 1324.42 1183.3 1301.19 C 1211.03 1284.63 1236.45 1267.59 1256.48 1241.7 z"/>
<path transform="translate(0,0)" fill="rgb(229,242,237)" d="M 897.879 87.1524 C 900.993 91.9107 907.69 142.041 909.117 151.096 C 892.857 186.959 879.281 224.117 864.703 260.679 L 796.283 429.34 L 721.773 612.31 C 708.858 644.906 694.602 677.248 685.351 711.135 C 679.923 709.389 674.644 707.23 669.344 705.136 C 679.606 672.666 692.117 640.626 703.686 608.586 A 10544.8 10544.8 0 0 1 788.914 381.199 A 10816.3 10816.3 0 0 0 853.697 211.134 C 860.249 193.786 885.185 138.49 885.09 122.613 C 883.258 122.1 881.735 122.039 879.838 122.048 C 877.78 123.448 876.831 125.525 875.888 127.765 C 868.146 146.166 862.552 165.906 855.43 184.617 L 802.429 322.989 L 685.36 634.069 C 677.137 656.465 670.057 679.301 662.078 701.794 C 656.628 698.968 651.768 696.438 647.138 692.335 C 651.627 675.555 658.278 659.337 663.919 642.912 L 699.571 540.21 A 15875.1 15875.1 0 0 1 772.75 332.129 C 798.07 262.48 824.5 193.292 848.806 123.273 C 865.022 111.161 880.971 98.2611 897.879 87.1524 z"/>
<path transform="translate(0,0)" fill="rgb(143,187,163)" d="M 1744.63 1489.4 C 1766.64 1487.45 1789.11 1494.5 1809.44 1502.12 C 1752.84 1601.59 1670.41 1687.89 1581.46 1759.17 A 2402.75 2402.75 0 0 1 1549.55 1783.44 A 1207.48 1207.48 0 0 1 1536.3 1758.54 C 1544.91 1738.97 1550.04 1716.41 1556.81 1695.98 A 419.574 419.574 0 0 1 1628.92 1562.47 C 1657.83 1526.94 1697.5 1494.17 1744.63 1489.4 z"/>
<path transform="translate(0,0)" fill="rgb(54,45,79)" d="M 1627.46 1641.55 C 1630.4 1643.11 1630.98 1643.89 1631.94 1646.95 C 1630.25 1656.11 1620.56 1664.61 1614.2 1671.14 C 1613.47 1670.69 1612.23 1669.96 1611.6 1669.43 C 1609.64 1667.8 1609.3 1666.71 1609.43 1664.15 C 1609.8 1656.38 1621.58 1645.91 1627.46 1641.55 z"/>
<path transform="translate(0,0)" fill="rgb(54,45,79)" d="M 1699.62 1560.62 C 1701.71 1561.7 1702.03 1562.22 1703.37 1564.19 C 1703.55 1565.65 1703.64 1566.94 1703.16 1568.36 C 1700.46 1576.43 1674.15 1607.82 1666.63 1612.01 C 1665.93 1611.47 1664.59 1610.48 1664.05 1609.82 C 1663.01 1608.56 1662.74 1607.47 1662.93 1605.91 C 1664.23 1595.29 1691.16 1567.44 1699.62 1560.62 z"/>
<path transform="translate(0,0)" fill="rgb(143,187,163)" d="M 1916 919.934 C 1917.79 919.944 1916.83 919.734 1918.77 920.954 C 1920.27 932.201 1922.68 943.318 1924.13 954.593 C 1927.04 977.355 1928.85 1000.33 1930.66 1023.21 C 1906.73 1029.35 1882.67 1039.4 1861.55 1052.11 C 1787.55 1096.63 1727.71 1180.8 1706.85 1264.19 C 1698.19 1255.76 1688.59 1248.02 1679.44 1240.11 L 1640.53 1208.4 C 1641.01 1207.1 1641.5 1205.81 1642.04 1204.52 C 1677.12 1121.29 1727.12 1050.42 1796.17 992.168 C 1816.81 974.761 1838.17 958.573 1861.69 945.219 C 1879.18 935.284 1897.36 927.448 1916 919.934 z"/>
<path transform="translate(0,0)" fill="rgb(54,45,79)" d="M 1860.75 1002.02 C 1861.72 1001.88 1862.54 1001.73 1863.54 1001.76 C 1866.05 1001.83 1867.33 1002.48 1869.13 1004.13 L 1869.15 1006.59 C 1863.68 1017.47 1849.32 1026.18 1838.64 1031.29 C 1837.81 1031.45 1836.87 1031.67 1836.02 1031.6 C 1833.36 1031.4 1832.58 1030.96 1831 1029.07 C 1830.94 1028.01 1830.85 1027.31 1831.09 1026.22 C 1833.45 1015.8 1852.09 1006.75 1860.75 1002.02 z"/>
<path transform="translate(0,0)" fill="rgb(252,207,189)" d="M 737.388 231.255 C 754.251 222.875 782.297 215.016 800.928 209.441 C 778.401 271.654 753.971 333.307 732.805 395.974 C 684.27 399.049 636.266 405.245 588.003 411.043 L 489.187 422.176 A 2603.14 2603.14 0 0 0 439.027 428.32 C 427.751 429.772 415.287 432.275 403.946 431.749 C 453.896 386.515 510.874 345.546 570.228 313.559 A 1245.38 1245.38 0 0 1 681.371 260.306 C 691.818 256.002 702.32 251.602 712.951 247.774 C 718.353 245.828 724.087 245.013 729.382 242.767 C 731.325 241.943 733.4 240.817 734.922 239.327 C 737.306 236.994 737.207 234.375 737.388 231.255 z"/>
<path transform="translate(0,0)" fill="rgb(143,187,163)" d="M 1889.52 809.828 L 1890.81 809.744 C 1896 814.929 1911.35 885.054 1914.39 898.612 C 1900.41 902.421 1886.99 907.845 1873.88 914.005 C 1761.26 966.932 1665.84 1080.62 1623.98 1196.86 C 1611.62 1189.27 1599.66 1180.76 1587.58 1172.71 L 1537.73 1140.02 C 1546.93 1119.32 1558.3 1100.16 1570.41 1081.06 C 1642.54 967.238 1765.04 862.161 1889.52 809.828 z"/>
<path transform="translate(0,0)" fill="rgb(54,45,79)" d="M 1648.11 1069.81 C 1650.24 1069.61 1651.44 1069.96 1653.43 1070.71 C 1654.23 1071.98 1654.99 1072.55 1654.82 1074.14 C 1653.82 1083.37 1641.23 1097.05 1634.27 1102.87 C 1631.17 1102.92 1630.31 1103.22 1627.64 1101.5 C 1627.03 1099.77 1626.84 1098.81 1627.19 1096.96 C 1628.98 1087.66 1640.52 1075.1 1648.11 1069.81 z"/>
<path transform="translate(0,0)" fill="rgb(54,45,79)" d="M 1620.74 1113.56 C 1621.58 1113.76 1622.9 1114.03 1623.64 1114.45 C 1624.9 1115.17 1626.05 1116.34 1626.38 1117.76 C 1628.07 1124.98 1606.78 1156.29 1602.15 1164.42 C 1600.28 1164.93 1599.23 1164.3 1597.39 1163.8 L 1596.52 1161.99 C 1597.03 1147.44 1610.28 1123.5 1620.74 1113.56 z"/>
<path transform="translate(0,0)" fill="rgb(54,45,79)" d="M 1846 863.895 C 1848.39 864.073 1850.38 864.602 1852.42 865.919 C 1853.93 866.897 1853.6 867.137 1853.95 868.758 C 1849.66 879.929 1829.79 884.099 1820.86 891.07 C 1813.93 896.482 1808.33 903.134 1800.73 907.77 C 1797.52 907.384 1797.21 907.202 1794.72 905.137 C 1793.79 902.554 1793.51 901.901 1794.6 899.182 C 1799.44 887.126 1834 868.626 1846 863.895 z"/>
<path transform="translate(0,0)" fill="rgb(143,187,163)" d="M 1185.82 1584.74 C 1196.03 1596.35 1206.34 1607.89 1215.93 1620.02 C 1210.62 1637.95 1207.7 1654.89 1210.85 1673.52 C 1217.9 1715.3 1245.97 1748.52 1279.69 1772.23 C 1241.11 1829.67 1196.76 1873.67 1145.63 1919.53 C 1102.09 1922.69 1059.02 1927.87 1015.29 1929.09 C 986.497 1930.58 957.63 1930.07 928.807 1929.89 C 943.813 1906.71 960.197 1884.1 979.34 1864.14 C 1018.04 1823.8 1069.99 1792.48 1119.55 1767.49 A 656.795 656.795 0 0 1 1154.73 1750.83 C 1163.71 1746.92 1173.73 1743.5 1182.14 1738.5 C 1188.22 1734.88 1187.23 1730.75 1185.85 1724.6 C 1182.82 1711.04 1179.29 1697.61 1177.49 1683.8 C 1173.25 1651.24 1178.65 1616.44 1185.82 1584.74 z"/>
<path transform="translate(0,0)" fill="rgb(54,45,79)" d="M 1175.64 1834.53 C 1177.08 1835.41 1178.24 1836.42 1179.52 1837.51 C 1180.11 1839.24 1180.7 1840.07 1180.35 1841.93 C 1178.78 1850.41 1154.15 1871.94 1146.63 1877.39 C 1145.78 1877.23 1145.47 1877.22 1144.63 1876.76 C 1142.42 1875.54 1141.64 1874.03 1141.01 1871.74 C 1144.81 1864.43 1168.63 1841.13 1175.64 1834.53 z"/>
<path transform="translate(0,0)" fill="rgb(54,45,79)" d="M 1021.96 1854.86 C 1022.85 1854.77 1024.14 1854.58 1025 1854.78 C 1027.49 1855.38 1028.14 1856.37 1029.12 1858.44 C 1028.49 1864.56 993.604 1901.15 987.11 1908.36 C 985.02 1908.14 983.824 1907.43 982.035 1906.37 C 981.211 1904.77 980.729 1904.46 980.972 1902.59 C 982.191 1893.13 1013.56 1860.76 1021.96 1854.86 z"/>
<path transform="translate(0,0)" fill="rgb(254,254,230)" d="M 1120.7 1359.83 C 1123.17 1362.72 1117.09 1404.86 1117 1412.87 C 1116.84 1427.88 1120.16 1455.78 1131.46 1466.48 C 1135.62 1470.41 1140.54 1471.29 1146.13 1471.11 C 1198.35 1469.48 1257.55 1440.86 1292.41 1402.55 C 1297.29 1417.05 1300.79 1432.23 1305.07 1446.95 C 1316.96 1487.84 1332.73 1535.17 1360.64 1567.9 C 1370.86 1579.89 1384.2 1588.24 1394.79 1599.66 C 1395.71 1600.66 1395.77 1601.68 1395.52 1603.05 C 1394.22 1610.27 1383.04 1618.45 1377.07 1622.27 C 1342.59 1644.38 1295.72 1644.97 1256.96 1636.54 C 1229.96 1605.88 1202.45 1576.08 1177.76 1543.45 C 1156.12 1514.85 1137.3 1484.39 1114.87 1456.41 C 1110.31 1450.13 1104.79 1445.08 1096.91 1443.72 C 1092.46 1442.95 1088.63 1443.53 1084.97 1446.16 C 1083.69 1448.64 1083.71 1448.81 1084.11 1451.58 C 1086.2 1454.99 1089.99 1456.16 1093.49 1457.77 C 1058.99 1480.84 1012.46 1501.35 975.378 1521.34 C 942.745 1538.94 913.272 1559.67 884.846 1583.36 C 867.505 1565.23 827.094 1561.15 803 1557.63 C 803.281 1532.42 796.974 1506.91 788.366 1483.38 C 836.68 1435.1 896.686 1402.61 957.143 1372.02 C 981.034 1385.1 1001.44 1405.61 1023.68 1421.35 C 1032.11 1427.31 1043.65 1436.68 1054.7 1434.39 C 1074.31 1430.32 1108.92 1377.47 1120.7 1359.83 z"/>
<path transform="translate(0,0)" fill="rgb(143,187,163)" d="M 1929.84 1047.15 C 1933.97 1052.46 1929.58 1107.69 1928.91 1118.91 C 1886.01 1143.94 1849.19 1176.07 1821.36 1217.48 C 1800.16 1249.03 1778.52 1289.23 1786.24 1328.31 C 1794.96 1315.27 1803.86 1287.85 1811.65 1271.58 C 1832.54 1228 1883.59 1167.36 1926.34 1144.39 C 1920.65 1237.14 1894.76 1325.81 1857.75 1410.69 C 1845.79 1438.1 1833.08 1466 1816.96 1491.25 C 1806.05 1481.66 1793.61 1475.56 1779.6 1471.76 C 1745.24 1462.47 1712.75 1470.27 1682.55 1487.8 C 1598.31 1536.71 1545.75 1644.92 1521.28 1735.77 C 1514.13 1726.37 1506.7 1717.31 1499 1708.35 C 1475.73 1680.8 1447.97 1661.4 1418.34 1641.54 C 1417.87 1635.97 1416.38 1630.43 1415.6 1624.88 C 1414.21 1614.99 1414.95 1605.84 1416 1595.98 C 1409.09 1584.7 1397.25 1575.7 1387.56 1566.83 C 1413.27 1529.04 1440.28 1496.69 1485.16 1482.02 C 1488.21 1500.86 1488.21 1522.77 1486.79 1541.82 C 1485.63 1557.38 1479.11 1577.15 1482.75 1592.28 C 1483.72 1596.34 1486.02 1601.5 1490.08 1603.35 C 1494.5 1605.37 1498.98 1604.57 1503.39 1602.89 C 1512.58 1599.4 1521.55 1592.28 1529.32 1586.41 C 1565.75 1558.9 1601.02 1521.5 1616.24 1477.82 C 1622.62 1459.5 1623.19 1435.83 1630.98 1419.63 A 56.9828 56.9828 0 0 1 1663.11 1391.1 C 1707.39 1375.21 1761.97 1393.28 1802.74 1412.3 C 1803.81 1415.72 1804.89 1419.41 1807.59 1421.94 C 1809.22 1423.47 1810.2 1424.05 1812.47 1423.87 C 1813.89 1422.32 1814.14 1421.53 1814.43 1419.4 C 1817.31 1398.25 1769.41 1333.03 1754.25 1314.84 C 1742.44 1300.67 1728.88 1288.02 1717.33 1273.64 C 1726.32 1258.77 1735.2 1234.88 1743.5 1218.28 C 1753.55 1198.18 1764.75 1177.86 1777.94 1159.63 C 1801.94 1126.46 1843.12 1087.75 1878.79 1068.19 C 1895.14 1059.22 1912.22 1053.02 1929.84 1047.15 z"/>
<path transform="translate(0,0)" fill="rgb(54,45,79)" d="M 1905.92 1205.74 C 1906.42 1205.82 1906.93 1205.83 1907.42 1205.97 C 1910.06 1206.73 1910.38 1207.14 1911.4 1209.47 C 1909.97 1219.05 1899.47 1230.21 1892.79 1236.98 C 1890.62 1236.5 1889.27 1236.39 1887.6 1234.82 C 1886.43 1233.71 1886.16 1232.28 1886.28 1230.68 C 1886.86 1222.61 1900.17 1210.98 1905.92 1205.74 z"/>
<path transform="translate(0,0)" fill="rgb(233,121,112)" d="M 1065.39 983.113 C 1077.96 984.304 1090.85 987.307 1103.24 989.843 A 1265.16 1265.16 0 0 1 1202.48 1014.62 A 1452.02 1452.02 0 0 1 1403.46 1089.94 C 1529.41 1148.87 1708.87 1259.91 1777.27 1383.32 C 1745.48 1370.84 1709.2 1362.98 1675.04 1369.04 C 1634.73 1271.06 1547.62 1200.75 1461.98 1143.24 L 1460.78 1143.54 C 1466.62 1149.25 1473.64 1154.05 1479.96 1159.29 A 917.85 917.85 0 0 1 1516.38 1190.82 C 1559.94 1230.66 1600.74 1273.3 1632.21 1323.57 C 1642.15 1339.43 1650.18 1356.49 1659.65 1372.66 L 1657.56 1373.34 C 1641.75 1378.36 1632.67 1386.76 1622.84 1399.73 L 1610.55 1369.25 C 1582.79 1298.85 1537.1 1239.12 1480.18 1189.62 C 1459.97 1172.04 1438.32 1155.92 1417.24 1139.39 C 1433.11 1161.26 1457.11 1179.15 1475.94 1198.65 C 1542.46 1267.54 1591.06 1338.67 1611.34 1433.48 C 1606.95 1448.07 1602.82 1463.13 1596.75 1477.13 C 1577.57 1521.3 1542.21 1558.01 1500.75 1581.81 C 1507.72 1530.62 1505.63 1480.49 1495.11 1429.94 C 1459.6 1259.26 1340.64 1129.28 1191.98 1045.39 C 1161.91 1028.41 1130.45 1014.72 1099.36 999.747 C 1088.74 994.63 1075.79 990.137 1066.12 983.619 C 1065.87 983.455 1065.63 983.282 1065.39 983.113 z"/>
<path transform="translate(0,0)" fill="rgb(254,254,230)" d="M 403.946 431.749 C 415.287 432.275 427.751 429.772 439.027 428.32 A 2603.14 2603.14 0 0 1 489.187 422.176 L 588.003 411.043 C 636.266 405.245 684.27 399.049 732.805 395.974 L 668.162 580.03 C 657.114 611.95 646.481 648.159 634.108 679.1 C 628.03 672.862 621.89 666.656 615.995 660.245 C 605.96 649.329 593.72 631.376 577.527 630.778 C 570.956 630.535 563.326 634.254 558.588 638.631 C 553.275 643.54 552.245 650.767 552.195 657.671 C 552.155 663.025 553.005 668.9 557.032 672.795 C 562.235 677.827 569.627 678.893 576.561 678.527 C 579.753 678.358 582.738 678.153 585.937 678.479 C 593.096 685.546 601.544 692.701 607.223 701.058 C 610.293 705.574 611.651 712.359 615.172 716.192 C 618.149 719.431 626.373 721.665 630.683 723.187 C 612.522 734.142 588.749 746.963 583.162 769.196 C 581.68 775.094 581.342 781.223 579.888 787.114 C 578.454 792.923 575.685 797.666 575.656 803.821 C 575.654 804.181 575.634 804.54 575.643 804.9 C 575.727 808.542 577.892 812.318 579.412 815.589 C 575.628 818.496 571.262 820.997 567.84 824.29 C 567.955 828.641 568.194 833.027 568.137 837.378 C 556.68 853.563 554.564 868.026 556.092 887.503 C 556.226 889.213 556.163 890.71 555.984 892.408 C 558.24 895.97 560.39 899.703 562.913 903.08 C 557.307 914.619 540.959 936.119 544.901 948.738 C 547.241 956.227 554.485 961.956 561.318 965.181 C 567.988 968.329 576.929 970.599 584.079 967.723 C 594.515 963.525 601.27 947.239 606.415 937.762 C 609.62 953.429 622.298 993.793 632.869 1004.56 C 635.391 1005.39 636.555 1005.54 639.032 1004.36 C 642.721 1002.61 646.007 999.479 649.012 996.773 C 659.906 1012.61 670.389 1028.21 684.043 1041.86 C 724.471 1082.27 786.972 1105.6 841.93 1116.33 C 843.158 1129.1 845.165 1153.67 856.418 1162.13 C 868.67 1171.34 935.607 1176.04 955.24 1179.19 C 972.781 1201.27 993.901 1221 1015.47 1239.09 C 1010.82 1246.67 1010.1 1252.72 1009.48 1261.35 C 1002.67 1268.5 996.972 1276.04 997.191 1286.48 C 997.358 1294.4 1000.5 1300.3 1006.07 1305.66 C 990.521 1314.95 941.006 1334.81 932.665 1346.39 C 932.321 1349.12 932.348 1350.66 934.012 1352.97 C 935.785 1355.44 938.915 1357.7 941.284 1359.61 C 883.358 1388.9 826.909 1422.18 779.496 1467.03 C 775.832 1462.08 772.352 1456.05 766.172 1454.15 C 758.842 1454.69 753.486 1460.85 748.971 1466.13 C 741.291 1475.1 734.66 1485.01 728.176 1494.86 C 709.806 1522.78 699.126 1547.81 701.977 1581.73 C 704.588 1612.8 714.152 1643.45 724.126 1672.83 C 726.243 1679.06 728.065 1689.01 733.07 1693.19 L 734.128 1694.06 C 743.845 1702.18 747.437 1752.6 748.64 1767.05 C 750.319 1787.21 751.579 1810.36 746.36 1829.98 A 51.7923 51.7923 0 0 0 720.21 1854.28 C 722.771 1859.21 725.473 1863.99 728.324 1868.76 C 727.444 1870.82 726.554 1871.56 724.489 1872.36 C 710.723 1877.67 628.585 1846.92 612.032 1839.88 C 596.757 1833.38 581.735 1825.79 567.112 1817.95 A 443.441 443.441 0 0 1 539.401 1801.64 C 540.47 1790.15 540.424 1775.79 532.425 1766.61 C 530.54 1764.45 528.178 1762.67 525.795 1761.1 C 509.602 1760.26 500.054 1764.72 487.362 1774.38 C 390.843 1712.55 305.056 1620.9 245.966 1523.01 C 230.146 1496.8 216.95 1469.53 203.504 1442.08 C 195.39 1430.68 184.387 1398.74 178.697 1384.37 A 838.428 838.428 0 0 1 118.36 1047.31 C 118.85 1030.01 119.202 1012.56 120.937 995.326 L 121.055 993.717 C 134.853 810.898 214.919 635.386 336.831 499.406 C 358.197 475.575 379.641 452.641 403.946 431.749 z"/>
<path transform="translate(0,0)" fill="rgb(108,100,116)" d="M 409.218 901.996 C 412.552 901.937 415.875 901.787 419.017 903.081 C 423.8 905.052 427.535 909.069 429.415 913.857 A 20.417 20.417 0 0 1 428.598 930.716 C 425.755 936.153 421.753 938.326 416.105 940.125 C 412.779 940.128 409.381 940.18 406.168 939.197 C 401.62 937.806 397.5 934.09 395.288 929.925 A 18.0087 18.0087 0 0 1 394.248 915.152 C 396.878 908.005 402.553 904.817 409.218 901.996 z"/>
<path transform="translate(0,0)" fill="rgb(254,254,230)" d="M 409.297 908.757 C 410.964 908.677 412.839 908.559 414.487 908.929 C 417.031 909.501 419.614 911.775 421.01 913.906 C 423.137 917.156 423.622 921.079 422.627 924.806 C 421.438 929.259 419.104 931.039 415.208 933.209 A 44.6324 44.6324 0 0 1 413.104 933.134 C 408.967 932.869 405.626 931.348 403.034 928.026 C 401.008 925.431 400.465 922.067 401.097 918.887 C 402.135 913.67 405.092 911.508 409.297 908.757 z"/>
<path transform="translate(0,0)" fill="rgb(54,45,79)" d="M 320.538 642.693 C 322.472 642.892 324.102 643.302 325.951 643.897 C 332.604 650.214 332.505 665.715 336.103 674.579 L 336.587 675.739 C 344.214 682.501 354.703 685.379 361.61 692.835 C 362.627 698.637 343.749 699.365 337.585 705.528 C 328.454 714.658 332.452 735.048 326.348 746.566 C 324.478 746.965 322.913 746.816 321.019 746.64 C 319.52 745.427 319.032 744.668 318.346 742.815 C 315.947 736.338 315.925 728.008 314.676 721.131 C 313.728 715.907 311.929 710.894 310.211 705.881 C 303.663 702.522 288.971 699.86 285.758 693.245 C 287.994 687.885 305.561 680.6 311.243 676.994 C 314.801 666.541 312.971 650.756 320.538 642.693 z"/>
<path transform="translate(0,0)" fill="rgb(254,254,248)" d="M 323.292 670.702 C 324.571 672.374 325.233 674.547 326.293 676.383 C 330.2 683.153 335.264 687.472 341.515 691.884 C 331.536 696.356 328.187 699.765 324.192 710.189 C 322.124 709.021 321.193 704.471 320.36 702.125 L 319.819 701.66 C 315.523 697.894 311.239 695.499 306.198 692.89 C 315.246 685.964 320.203 682.064 323.292 670.702 z"/>
<path transform="translate(0,0)" fill="rgb(108,100,116)" d="M 120.937 995.326 L 121.388 994.612 C 127.412 984.906 132.02 974.287 137.932 964.459 C 148.707 946.545 166.863 926.333 187.875 920.894 C 199.057 917.999 209.673 921.056 219.327 926.938 C 268.834 957.103 298.397 1043.88 311.151 1098.38 A 1634.56 1634.56 0 0 1 316.337 1121.64 C 326.952 1106.95 341.739 1095.36 360.016 1092.35 C 377.413 1089.48 394.4 1095.42 408.214 1105.83 C 432.414 1124.06 442.919 1150.31 450.786 1178.5 C 465.901 1171.1 481.016 1169.18 497.274 1174.76 C 513.829 1180.45 528.906 1193.67 537.953 1208.53 C 557.676 1209.81 575.578 1215.67 591.084 1228.22 C 524.783 1225.93 457.936 1227.36 391.572 1227.63 C 337.381 1227.84 283.087 1226.43 228.945 1229.28 C 323.064 1253.14 400.226 1288.49 451.89 1375.14 C 453.119 1377.2 454.294 1379.3 455.6 1381.32 C 488.453 1374.87 519.488 1382.75 547.075 1401.27 C 563.5 1412.3 577.686 1426.52 590.516 1441.51 C 549.749 1442.93 508.718 1441.88 467.915 1441.84 C 379.809 1441.75 291.599 1441 203.504 1442.08 C 195.39 1430.68 184.387 1398.74 178.697 1384.37 A 838.428 838.428 0 0 1 118.36 1047.31 C 118.85 1030.01 119.202 1012.56 120.937 995.326 z"/>
</svg>